<svg width="1008" height="664" viewBox="0 0 1008 664" fill="none" xmlns="http://www.w3.org/2000/svg">
<rect width="1008" height="664" fill="#212121"/>
<path d="M550.613 241.988C545.071 239.36 537.733 238.03 528.825 238.03C525.506 238.03 522.28 238.063 519.233 238.137C516.232 238.203 513.169 238.309 510.122 238.449C507.075 238.589 503.826 238.794 500.46 239.073L499.589 239.147V313.407L500.468 313.465C503.453 313.67 506.515 313.842 509.578 313.982C512.633 314.122 515.843 314.22 519.124 314.294C522.451 314.36 526.003 314.401 529.688 314.401C537.896 314.401 544.814 313.046 550.256 310.386C555.767 307.685 559.949 303.448 562.693 297.8C565.398 292.209 566.774 284.984 566.774 276.33C566.774 267.677 565.491 260.157 562.973 254.574C560.408 248.909 556.257 244.68 550.621 242.012L550.613 241.988ZM544.294 289.541C543.151 292.726 541.487 295.066 539.35 296.486C537.181 297.923 534.398 298.654 531.087 298.654C529.897 298.654 528.856 298.637 527.892 298.604L524.884 298.506C523.889 298.473 522.894 298.424 521.899 298.35C521.184 298.301 520.468 298.268 519.769 298.251V254.204C520.608 254.155 521.51 254.106 522.482 254.056C523.803 253.991 525.156 253.941 526.547 253.9C527.939 253.868 529.276 253.851 530.558 253.851C534.173 253.851 537.142 254.549 539.389 255.937C541.589 257.291 543.26 259.574 544.364 262.702C545.506 265.953 546.081 270.559 546.081 276.404C546.081 281.831 545.483 286.248 544.309 289.532L544.294 289.541Z" fill="white"/>
<path d="M647.145 295.357C646.912 295.357 646.593 295.373 646.197 295.414C645.87 295.447 645.614 295.463 645.42 295.463C644.316 295.463 643.142 295.225 641.922 294.749C640.678 294.265 639.341 293.493 637.942 292.442C636.504 291.366 634.941 290.036 633.293 288.485C631.933 287.212 630.503 285.71 629.018 284.01C631.762 282.992 634.226 281.646 636.348 280.004C638.867 278.05 640.833 275.513 642.186 272.442C643.531 269.396 644.207 265.726 644.207 261.539C644.207 257.352 643.562 253.83 642.295 250.85C641.004 247.828 638.913 245.332 636.076 243.444C633.301 241.597 629.717 240.217 625.427 239.331C621.19 238.461 616.005 238.025 610.028 238.025C607.564 238.025 604.788 238.058 601.78 238.132C598.819 238.198 595.523 238.305 591.978 238.444C588.433 238.584 584.492 238.789 580.287 239.068L579.401 239.126V313.361H599.573V289.347C600.296 289.38 601.065 289.396 601.858 289.396H606.856C607.377 289.396 607.82 289.38 608.201 289.347C610.688 292.836 613.114 295.939 615.415 298.575C617.84 301.35 620.242 303.772 622.558 305.751C624.89 307.746 627.199 309.396 629.43 310.652C631.676 311.925 633.977 312.877 636.263 313.476C638.548 314.076 640.872 314.388 643.158 314.388C644.106 314.388 644.938 314.355 645.622 314.281C646.275 314.207 646.858 314.141 647.363 314.076L648.187 313.969L648.07 295.365H647.137L647.145 295.357ZM605.068 253.698C605.877 253.666 606.693 253.649 607.509 253.649H610.471C613.93 253.649 616.666 254.01 618.602 254.733C620.444 255.414 621.703 256.432 622.449 257.845C623.227 259.306 623.623 261.317 623.623 263.813C623.623 265.866 623.343 267.59 622.784 268.945C622.232 270.275 621.454 271.326 620.397 272.155C619.332 272.992 617.918 273.616 616.192 273.994C614.396 274.388 612.251 274.593 609.826 274.593H606.763C605.877 274.593 605.014 274.577 604.167 274.544L601.586 274.437C600.972 274.413 600.311 274.38 599.588 274.339V254.019C600.645 253.961 601.57 253.912 602.363 253.854C603.358 253.789 604.268 253.74 605.084 253.698H605.068Z" fill="white"/>
<path d="M678.744 238.755L654.211 313.352H675.262L679.241 299.92H700.882L704.862 313.352H726.892L702.025 238.755H678.744ZM697.003 283.582H683.12L690.062 257.014L697.003 283.582Z" fill="white"/>
<path d="M764.858 286.187H777.77V297.46C776.479 297.829 775.002 298.109 773.386 298.306C771.466 298.544 769.351 298.659 767.097 298.659C763.545 298.659 760.529 297.953 758.134 296.565C755.795 295.202 754.015 292.985 752.849 289.98C751.644 286.885 751.037 282.665 751.037 277.444C751.037 272.222 751.698 267.682 753.012 264.34C754.287 261.097 756.284 258.651 758.951 257.083C761.663 255.49 765.2 254.677 769.468 254.677C772.352 254.677 775.492 254.899 778.819 255.342C782.154 255.785 785.489 256.385 788.738 257.132L789.624 257.337L793.41 241.639L792.539 241.368C790.72 240.81 788.831 240.318 786.927 239.907C785.015 239.488 783.025 239.144 780.996 238.864C778.975 238.585 776.868 238.38 774.746 238.24C772.608 238.101 770.331 238.035 767.968 238.035C759.681 238.035 752.709 239.48 747.221 242.321C741.678 245.194 737.481 249.587 734.745 255.367C732.039 261.089 730.664 268.454 730.664 277.247C730.664 285.555 731.923 292.526 734.418 297.977C736.937 303.494 740.808 307.657 745.923 310.366C750.975 313.043 757.38 314.397 764.952 314.397C770.922 314.397 776.495 313.938 781.517 313.043C786.546 312.14 791.233 310.727 795.438 308.847L796.014 308.593V270.687H764.874V286.204L764.858 286.187Z" fill="white"/>
<path d="M830 239.061H809.937V313.354H830V239.061Z" fill="white"/>
<path d="M259.672 234.674C259.866 234.001 260.068 233.312 260.293 232.606C262.587 223.903 265.354 207.557 260.293 198.903C258.35 195.578 255.365 193.649 251.175 193H251.09C245.338 193 240.472 195.266 236.227 199.929C228.003 208.969 222.43 226.9 220.098 251.793C219.608 257.014 219.313 262.047 219.142 266.604C228.47 253.328 242.563 242.244 259.679 234.666L259.672 234.674Z" fill="white"/>
<path d="M287.535 214.459C286.999 213.499 286.253 212.949 285.11 212.678C279.84 211.438 273.644 220.198 269.556 230.798C275.386 228.802 281.488 227.185 287.807 226.003C288.585 222.407 289.036 217.177 287.535 214.459Z" fill="white"/>
<path d="M359.747 231.611C355.666 220.642 349.292 211.406 343.881 212.678C342.739 212.941 341.993 213.499 341.456 214.46C339.894 217.284 340.438 222.818 341.277 226.414C347.69 227.719 353.862 229.468 359.747 231.619V231.611Z" fill="white"/>
<path d="M369.606 235.709C387.011 243.87 401.096 255.709 409.942 269.764C409.367 248.648 406.242 214.757 392.763 199.929C388.519 195.266 383.66 193 377.9 193H377.807C373.625 193.649 370.632 195.578 368.689 198.903C363.629 207.557 366.373 223.821 368.666 232.523C369.015 233.624 369.326 234.683 369.606 235.701V235.709Z" fill="white"/>
<path d="M447.614 305.703L444.372 296.934C444.271 296.68 444.17 296.425 444.03 296.171C443.991 296.04 443.906 295.941 443.851 295.834C443.828 295.793 443.813 295.752 443.789 295.728C443.712 295.58 443.61 295.432 443.525 295.301C443.385 295.112 443.245 294.939 443.105 294.767C443.066 294.701 443.004 294.636 442.942 294.578C442.841 294.471 442.717 294.365 442.615 294.258C442.514 294.192 442.437 294.11 442.336 294.02C442.258 293.938 442.157 293.872 442.056 293.79C441.069 293.068 439.879 292.665 438.674 292.665C437.913 292.665 437.143 292.813 436.381 293.158L418.876 301.138L416.901 302.049L411.499 304.496L410.792 304.816L410.108 305.136L403.819 308.01L402.995 308.371V308.396L400.702 309.438L395.362 311.86L384.984 316.581L380.312 318.708L375.718 320.793L323.28 344.684C320.116 346.129 316.75 346.835 313.408 346.835C310.065 346.835 306.66 346.129 303.473 344.684L251.074 320.744L246.48 318.634L241.847 316.507L226.277 309.422L223.618 308.207V308.182L223.074 307.952L216.972 305.145L216.125 304.759L215.176 304.332L209.999 301.967L207.846 300.966L190.706 293.133C189.944 292.788 189.175 292.641 188.413 292.641C188.25 292.641 188.071 292.641 187.908 292.665C187.83 292.665 187.744 292.69 187.667 292.69C187.504 292.715 187.348 292.756 187.185 292.772C186.983 292.813 186.804 292.879 186.641 292.944C186.477 292.985 186.314 293.051 186.159 293.133C186.058 293.158 185.98 293.199 185.879 293.24C185.537 293.429 185.195 293.642 184.868 293.897C184.728 294.003 184.589 294.11 184.464 294.233C184.301 294.381 184.145 294.554 183.982 294.726C183.858 294.874 183.765 295.005 183.663 295.169C183.562 295.251 183.5 295.358 183.438 295.465C183.314 295.637 183.236 295.785 183.135 295.957C182.972 296.253 182.832 296.573 182.715 296.918L179.474 305.686C178.168 309.217 179.652 313.281 182.816 314.726C182.816 314.726 225.663 334.471 257.696 349.192C258.178 349.422 258.66 349.635 259.15 349.832C259.391 349.939 259.632 350.046 259.873 350.152C260.215 350.284 260.541 350.432 260.883 350.555C261.288 350.727 261.669 350.875 262.073 351.023C262.376 351.129 262.679 351.236 262.982 351.343C263.301 351.474 263.604 351.556 263.907 351.663C264.288 351.794 264.669 351.942 265.058 352.049C265.54 352.221 266.045 352.369 266.55 352.492C267.017 352.64 267.475 352.771 267.942 352.895C268.019 352.919 268.105 352.936 268.167 352.96C268.633 353.067 269.092 353.19 269.574 353.297C270.079 353.428 270.585 353.551 271.082 353.658C272.069 353.872 273.033 354.044 274.005 354.208C274.067 354.208 274.106 354.208 274.145 354.233C275.171 354.405 276.197 354.528 277.231 354.66C277.752 354.701 278.257 354.766 278.785 354.808C279.291 354.849 279.811 354.89 280.34 354.914C280.721 354.955 281.102 354.955 281.506 354.98C281.63 354.98 281.747 354.98 281.848 355.005H281.887C282.649 355.029 283.395 355.046 284.165 355.046H342.285C342.791 355.046 343.273 355.046 343.755 355.021C344.159 354.996 344.563 354.996 344.944 354.98C345.045 354.98 345.123 354.955 345.224 354.955H345.348C345.815 354.931 346.258 354.914 346.701 354.873H346.74C347.144 354.849 347.564 354.808 347.968 354.766C348.147 354.766 348.349 354.742 348.535 354.725C348.877 354.701 349.18 354.66 349.499 354.619C350.183 354.537 350.852 354.446 351.512 354.34C351.917 354.274 352.298 354.208 352.678 354.167C353.184 354.085 353.666 353.978 354.148 353.888C356.122 353.502 358.073 353.034 360.009 352.459C360.413 352.353 360.817 352.221 361.213 352.074C361.338 352.049 361.454 352.008 361.579 351.991C361.96 351.86 362.325 351.737 362.706 351.606C363.071 351.474 363.429 351.351 363.794 351.22C364.315 351.006 364.844 350.817 365.364 350.604C366.429 350.202 367.479 349.75 368.528 349.282C400.881 334.537 444.295 314.709 444.295 314.709C447.435 313.264 448.927 309.2 447.637 305.67L447.614 305.703Z" fill="white"/>
<path d="M377.967 378.991L387.116 371.478C388.29 370.51 389.837 370.386 391.111 371.15L397.921 375.189V345.608L377.967 355.378V378.999V378.991Z" fill="white"/>
<path d="M245.364 306.333L249.958 308.443L252.095 309.42L254.575 310.545L307.115 334.543C309.128 335.454 311.243 335.906 313.419 335.906C315.596 335.906 317.671 335.462 319.645 334.567L372.247 310.61L374.844 309.42L376.841 308.509L381.435 306.423L408.549 294.059C408.588 293.673 408.626 293.295 408.65 292.909C400.876 259.888 363.588 234.462 318.2 232.844C317.415 232.803 316.645 232.779 315.86 232.779C315.075 232.754 314.29 232.713 313.481 232.713C312.673 232.713 311.849 232.713 311.04 232.754C309.952 232.779 308.864 232.82 307.776 232.861C307.371 232.885 306.952 232.902 306.547 232.926C306.322 232.926 306.128 232.951 305.902 232.967C261.688 235.586 225.728 260.841 218.352 293.353C218.352 293.566 218.39 293.796 218.414 294.01L245.364 306.333Z" fill="white"/>
<path d="M266.246 277.651C261.497 277.651 257.665 283.259 257.665 290.164C257.665 297.068 261.505 302.676 266.246 302.676C270.988 302.676 274.844 297.068 274.844 290.164C274.844 283.259 270.996 277.651 266.246 277.651Z" fill="#19145D"/>
<path d="M262.392 302.899C264.521 302.899 266.247 301.076 266.247 298.827C266.247 296.578 264.521 294.755 262.392 294.755C260.262 294.755 258.536 296.578 258.536 298.827C258.536 301.076 260.262 302.899 262.392 302.899Z" fill="white"/>
<path d="M360.809 277.651C356.059 277.651 352.227 283.259 352.227 290.164C352.227 297.068 356.067 302.676 360.809 302.676C365.55 302.676 369.406 297.068 369.406 290.164C369.406 283.259 365.558 277.651 360.809 277.651Z" fill="#19145D"/>
<path d="M356.952 302.899C359.081 302.899 360.807 301.076 360.807 298.827C360.807 296.578 359.081 294.755 356.952 294.755C354.822 294.755 353.096 296.578 353.096 298.827C353.096 301.076 354.822 302.899 356.952 302.899Z" fill="white"/>
<path d="M324.22 301.955C322.829 304.016 320.598 304.862 319.23 303.836C317.87 302.809 317.885 300.305 319.277 298.244C320.668 296.184 322.899 295.338 324.267 296.364C325.627 297.391 325.612 299.895 324.22 301.955Z" fill="#19145D"/>
<path d="M302.863 301.955C304.255 304.016 306.486 304.862 307.854 303.836C309.214 302.809 309.199 300.305 307.807 298.244C306.416 296.184 304.185 295.338 302.817 296.364C301.456 297.391 301.472 299.895 302.863 301.955Z" fill="#19145D"/>
</svg>
