<svg width="1008" height="664" viewBox="0 0 1008 664" fill="none" xmlns="http://www.w3.org/2000/svg">
<rect width="1008" height="664" fill="#212121"/>
<path fill-rule="evenodd" clip-rule="evenodd" d="M555.984 303.942V256.815H545.118V288.615L516.796 256.815H506.03V303.942H516.891V271.815L545.118 303.942H555.984ZM780.252 277.08C782.493 277.08 786.258 276.367 786.258 271.705C786.258 268.364 784.067 266.458 780.252 266.458H760.413V277.052L780.252 277.08ZM798.798 303.942H785.666L772.571 286.705H759.816V303.942H748.963V256.815H779.659C790.231 256.815 796.511 262.471 796.511 271.938C796.511 277.613 793.375 283.991 785.144 285.977L798.798 303.942ZM609.239 245.081C630.035 245.081 642.471 256.259 642.471 274.937C642.471 288.335 633.763 303.942 609.239 303.942H583.009V245.081H609.239ZM593.904 254.819V294.233H609.239C617.562 294.233 631.547 291.652 631.547 274.338C631.547 261.924 623.415 254.819 609.239 254.819H593.904ZM814.61 294.304V285.202H839.68V275.559H814.61V266.458H847V256.815H803.777V303.942H847V294.304H814.61ZM709.356 294.304V285.202H734.414V275.559H709.356V266.458H741.734V256.815H698.49V303.942H741.734V294.304H709.356ZM658.883 294.304V285.202H683.925V275.559H658.883V266.458H691.266V256.815H648.038V303.942H691.266V294.304H658.883ZM486.341 256.815V275.559H458.096V256.815H447.244V303.942H458.096V285.202H486.341V303.942H497.193V256.815H486.341ZM412.945 295.426C406.598 295.426 395.917 293.453 395.917 280.241C395.917 270.774 402.132 265.337 412.945 265.337C423.754 265.337 429.95 270.774 429.95 280.241C429.95 293.453 419.293 295.426 412.945 295.426ZM385.084 280.745C385.084 291.942 392.378 305.05 412.945 305.05C433.508 305.05 440.811 291.942 440.811 280.745C440.811 265.061 430.392 255.689 412.945 255.689C395.499 255.689 385.084 265.061 385.084 280.745ZM337.359 292.745C337.359 292.745 343.521 294.969 350.42 294.969C357.775 294.969 362.364 293.957 364.92 291.348C367.049 289.209 367.895 285.626 367.79 280.331C367.79 280.312 367.79 245.143 367.79 245.143H378.656V281.847C378.499 298.111 370.645 305.05 352.401 305.05C343.53 305.05 337.359 303.628 337.359 303.628V292.745Z" fill="white"/>
<path fill-rule="evenodd" clip-rule="evenodd" d="M231.574 210.353C253.235 210.353 274.04 215.352 292.109 224.221C298.551 239.776 302.105 256.747 302.105 274.522C302.105 292.287 298.561 309.254 292.118 324.8C274.049 333.668 253.235 338.668 231.574 338.668C209.842 338.668 189.065 333.65 170.949 324.719C164.535 309.197 161 292.264 161 274.522C161 256.776 164.535 239.833 170.954 224.301C189.065 215.386 209.842 210.353 231.574 210.353ZM206.549 279.684C207.376 272.269 209.4 265.768 212.317 259.965C212.749 259.086 211.88 258.967 211.88 258.967C209.557 258.482 203.432 257.237 203.432 257.237L202.62 254.68C208.711 252.389 216.113 250.279 221.073 249.196C221.706 248.098 222.029 247.138 222.029 246.301C222.029 245.641 221.819 245.08 221.421 244.6C219.035 241.772 209.68 242.908 199.674 246.796L199.503 246.149C201.195 244.79 203.67 243.098 206.069 241.995C205.235 239.155 201.651 237.81 201.327 237.689C201.313 237.684 201.306 237.681 201.304 237.68L201.727 237.352C205.005 237.747 207.613 239.115 208.758 241.031C211.49 240.194 212.431 239.98 214.645 239.8C214.394 235.185 209.999 232.058 209.951 232.024L210.455 231.72C214.607 233.222 217.657 236.192 218.65 239.686C220.684 239.743 221.387 239.814 223.088 240.522C223.682 239.139 223.919 237.804 223.919 236.568C223.919 232.105 220.931 228.854 220.884 228.812L221.439 228.541C226.651 231.216 228.025 235.817 228.025 239.914C228.025 243.711 226.841 247.066 226.457 248.088C226.457 248.088 232.281 246.914 236.738 246.339L236.98 246.596C236.695 246.986 234.652 249.481 229.441 252.385L225.055 251.852C224.704 252.955 222.247 260.811 222.237 266.638V266.657C222.237 268.786 222.836 270.445 224.029 271.599C226.138 273.648 229.668 273.757 232.134 273.676C248.93 273.044 256.318 275.435 257.463 275.853C257.553 275.501 257.753 274.665 257.753 273.396C257.753 270.91 256.636 266.832 252.821 262.047L253.386 261.781C253.388 261.782 253.393 261.785 253.402 261.79C253.857 262.046 263.515 267.483 264.708 275.772L260.328 277.564C264.271 281.727 265.649 286.755 266.747 290.824L266.749 290.832C267.541 293.761 268.226 296.291 269.659 297.535C271.234 298.889 277 301.965 278.465 302.746C278.675 302.858 278.797 302.923 278.805 302.929C278.805 302.929 280.91 305.656 286.108 314.672C290.631 301.821 292.925 288.329 292.925 274.513C292.925 259.433 290.175 244.685 284.753 230.665C268.428 223.132 250.037 219.14 231.569 219.14C213.096 219.14 194.69 223.151 178.323 230.732C172.916 244.733 170.165 259.461 170.165 274.513C170.165 289.588 172.911 304.302 178.313 318.294C194.686 325.888 213.096 329.89 231.569 329.89C249.994 329.89 268.343 325.917 284.653 318.408C281.209 311.873 275.603 306.232 275.303 305.951C275.209 305.918 274.874 305.815 274.352 305.653C270.915 304.589 259.368 301.014 255.021 298.732C251.039 296.65 246.863 291.594 246.388 291.009C242.411 290.747 238.425 290.738 234.315 291.232C233.596 291.322 232.866 291.419 232.127 291.518C227.659 292.114 222.861 292.754 218.242 292.012C215.182 291.508 212.227 290.534 209.091 289.498L209.054 289.485C204.314 287.921 199.417 286.304 193.835 286.323C194.619 287.844 199.38 296.717 206.169 298.984C206.231 298.994 208.269 299.454 209.044 300.039L212.298 305.229L211.951 305.6C211.799 305.538 196.729 298.072 186.784 285.7L186.352 283.229C192.116 281 198.058 280.458 203.829 279.932C204.161 279.901 204.493 279.871 204.825 279.841C204.825 279.841 206.307 279.712 206.549 279.684ZM231.569 215.609C251.619 215.609 270.928 220.072 287.804 228.018C293.524 242.475 296.665 258.154 296.665 274.551C296.665 290.904 293.538 306.574 287.842 320.998C270.956 328.959 251.628 333.426 231.569 333.426C211.448 333.426 192.158 328.93 175.234 320.922C169.547 306.512 166.43 290.871 166.43 274.551C166.43 258.183 169.547 242.523 175.268 228.094C192.191 220.095 211.467 215.609 231.569 215.609Z" fill="white"/>
</svg>
