<svg width="1008" height="664" viewBox="0 0 1008 664" fill="none" xmlns="http://www.w3.org/2000/svg">
<rect width="1008" height="664" fill="#212121"/>
<mask id="mask0_1569_6055" style="mask-type:luminance" maskUnits="userSpaceOnUse" x="228" y="169" width="553" height="182">
<path d="M781 169.35H228V350.211H781V169.35Z" fill="white"/>
</mask>
<g mask="url(#mask0_1569_6055)">
<path d="M598.274 193.679C596.937 192.391 595.878 190.843 595.161 189.13C594.444 187.418 594.085 185.576 594.106 183.719C594.096 181.835 594.472 179.969 595.209 178.236C595.946 176.503 597.03 174.939 598.393 173.64C599.698 172.283 601.263 171.203 602.995 170.465C604.727 169.728 606.59 169.348 608.473 169.348C610.355 169.348 612.218 169.728 613.95 170.465C615.682 171.203 617.247 172.283 618.552 173.64C619.657 174.754 620.579 176.037 621.282 177.44C622.01 176.037 622.951 174.755 624.071 173.64C625.376 172.283 626.941 171.203 628.673 170.465C630.405 169.728 632.268 169.348 634.15 169.348C636.033 169.348 637.896 169.728 639.628 170.465C641.36 171.203 642.925 172.283 644.23 173.64C645.594 174.939 646.677 176.503 647.414 178.236C648.152 179.969 648.527 181.835 648.517 183.719C648.538 185.576 648.179 187.418 647.462 189.13C646.746 190.843 645.686 192.391 644.349 193.679L621.282 211.834L598.274 193.679Z" fill="white"/>
<path d="M258.306 244.535C258.306 232.66 266.094 226.277 278.495 226.277C288.968 226.277 297.78 229.691 302.096 234.307C307.941 240.883 300.39 245.752 299.663 252.818C299.591 254.425 299.92 256.025 300.621 257.474C301.321 258.922 302.37 260.173 303.674 261.114C304.978 262.055 306.496 262.657 308.09 262.864C309.684 263.072 311.305 262.879 312.806 262.304C319.868 259.869 321.084 250.131 315.773 242.101C311.071 235.287 297.231 225.06 273.63 225.06C251.245 225.06 231.783 235.035 230.611 256.707C227.941 304.209 302.63 296.148 300.924 328.776C300.198 341.69 288.523 348.993 272.74 348.993C259.597 348.993 248.886 344.125 244.258 338.766C237.939 331.952 246.691 326.891 247.225 319.765C247.714 313.189 241.87 307.593 234.082 310.028C227.763 312.224 225.819 322.452 231.412 330.483C236.04 337.311 249.658 349.958 274.431 349.958C303.372 349.958 324.066 337.786 326.988 316.366C333.545 266.935 258.365 271.566 258.365 244.535" fill="white"/>
<path d="M459.249 320.018V265.228C459.249 240.631 460.94 229.929 463.373 228.711V227.494H407.167V228.726C420.31 228.726 422.505 235.302 422.505 255.268V310.043C422.505 317.836 422.505 324.412 422.015 329.533C416.423 340.725 405.698 347.791 395.982 347.791C378.463 347.791 379.664 326.609 379.664 310.043V265.228C379.679 240.602 381.385 229.929 383.758 228.726V227.509H327.611V228.726C340.739 228.726 342.935 235.287 342.935 255.253V305.159C342.935 336.569 360.217 350.211 385.954 350.211C405.238 350.211 414.406 343.397 421.956 331.953C421.229 341.2 420.013 345.832 418.544 346.559V347.776H474.513V346.559C461.37 346.559 459.19 339.746 459.19 320.018" fill="white"/>
<path d="M490.653 254.035H491.632C496.497 242.828 507.445 228.726 524.682 228.726H545.895L484.823 346.574V347.791H572.344L579.894 321.072H578.915C574.05 332.516 562.375 346.648 545.108 346.648H519.861L581.17 228.726V227.509H497.714L490.653 254.035Z" fill="white"/>
<path d="M640.833 320.017V265.227C640.833 254.331 640.833 225.148 640.833 225.148C640.833 225.148 640.833 217.859 640.833 215.38C640.833 214.786 640.833 214.534 640.833 214.593C627.289 228.547 588.795 227.478 588.795 227.478V228.725C601.938 228.725 604.133 235.539 604.133 255.266V319.779C604.133 339.507 601.938 346.499 588.795 346.499V347.716H656.201V346.499C643.058 346.499 640.877 339.685 640.877 319.957" fill="white"/>
<path d="M691.269 296.743L691.136 297.604L781.001 267.321L780.763 266.594C777.114 237.9 754.729 223.769 721.62 225.194C688.021 226.678 652.493 248.083 654.481 291.71C656.468 335.337 699.235 351.814 734.021 349.9C748.484 349 762.474 344.4 774.652 336.54V333.571C766.389 341.379 748.143 348.964 733.843 348.964C708.061 348.742 694.696 323.893 691.343 296.743M691.981 266.653V265.911C694.948 244.996 703.685 227.227 721.649 226.248C731.944 225.565 738.204 231.354 741.868 240.142C744.835 247.178 747.031 267.411 747.431 277.059L691.195 295.956C691.017 294.397 690.854 292.839 690.735 291.28C689.993 283.19 690.972 274.684 691.907 266.653" fill="white"/>
</g>
</svg>
